<svg width="182" height="71" viewBox="0 0 182 71" fill="none" xmlns="http://www.w3.org/2000/svg">
<path fill-rule="evenodd" clip-rule="evenodd" d="M35 0.536133C6.1775 0.536133 0 6.71363 0 35.5361C0 64.3586 6.1775 70.5361 35 70.5361C63.8225 70.5361 70 64.3586 70 35.5361C70 6.71363 63.8225 0.536133 35 0.536133ZM25.76 22.79V46.5783H36.8851C41.4724 46.5783 44.9399 43.6228 44.9399 39.5139C44.9399 37.8908 44.42 36.5462 43.4778 35.5099C42.8299 34.7972 41.9823 34.2303 40.9667 33.8191C41.6629 33.0472 42.1014 32.1468 42.2954 31.1178C42.373 30.7053 42.4115 30.2722 42.4115 29.8184C42.4115 25.6735 38.9439 22.79 34.3567 22.79H25.76ZM46.3396 34.2752C45.9393 33.7143 45.4796 33.2146 44.973 32.7733C45.2775 31.8346 45.4216 30.8423 45.4216 29.8184C45.4216 23.6117 40.1716 19.7864 34.3567 19.7864H22.75V49.5818H36.8851C42.7326 49.5818 47.95 45.6564 47.95 39.5139C47.95 37.581 47.4188 35.7869 46.3396 34.2752ZM33.9593 32.1972C34.2373 32.1972 34.4948 32.168 34.7299 32.1122C35.7474 31.8708 36.3433 31.1314 36.3433 30.1067C36.3433 29.0819 35.7474 28.3426 34.7299 28.1012C34.4948 28.0454 34.2373 28.0162 33.9593 28.0162H31.7199V32.1972H33.9593ZM36.6512 38.3384C36.6541 38.3378 36.6555 38.3374 36.6554 38.3372C36.6552 38.3371 36.6506 38.3378 36.6422 38.3399C36.6461 38.3393 36.6491 38.3388 36.6512 38.3384ZM36.6422 40.1833C36.6513 40.1847 36.6556 40.1857 36.6554 40.1859C36.6552 40.1861 36.6506 40.1854 36.6422 40.1833ZM38.8717 39.2616C38.8717 40.6673 37.9687 41.3521 36.4878 41.3521H31.7199V37.1711H36.4878C37.9687 37.1711 38.8717 37.8559 38.8717 39.2616Z" fill="white"/>
<path d="M102.08 34.8311C104.227 36.0678 105.3 37.9345 105.3 40.4311C105.3 42.5078 104.565 44.2111 103.095 45.5411C101.625 46.8711 99.8167 47.5361 97.67 47.5361H87.275V23.0361H96.935C99.035 23.0361 100.797 23.6895 102.22 24.9961C103.667 26.2795 104.39 27.9245 104.39 29.9311C104.39 31.9611 103.62 33.5945 102.08 34.8311ZM96.935 27.5511H92.105V32.9411H96.935C97.6817 32.9411 98.3 32.6845 98.79 32.1711C99.3033 31.6578 99.56 31.0161 99.56 30.2461C99.56 29.4761 99.315 28.8345 98.825 28.3211C98.335 27.8078 97.705 27.5511 96.935 27.5511ZM97.67 43.0211C98.4867 43.0211 99.1633 42.7528 99.7 42.2161C100.237 41.6561 100.505 40.9561 100.505 40.1161C100.505 39.2995 100.237 38.6228 99.7 38.0861C99.1633 37.5261 98.4867 37.2461 97.67 37.2461H92.105V43.0211H97.67ZM123.44 45.3661C121.643 47.1395 119.45 48.0261 116.86 48.0261C114.27 48.0261 112.077 47.1395 110.28 45.3661C108.507 43.5695 107.62 41.3761 107.62 38.7861C107.62 36.1961 108.507 34.0145 110.28 32.2411C112.077 30.4445 114.27 29.5461 116.86 29.5461C119.45 29.5461 121.643 30.4445 123.44 32.2411C125.237 34.0145 126.135 36.1961 126.135 38.7861C126.135 41.3761 125.237 43.5695 123.44 45.3661ZM113.465 42.2511C114.375 43.1611 115.507 43.6161 116.86 43.6161C118.213 43.6161 119.345 43.1611 120.255 42.2511C121.165 41.3411 121.62 40.1861 121.62 38.7861C121.62 37.3861 121.165 36.2311 120.255 35.3211C119.345 34.4111 118.213 33.9561 116.86 33.9561C115.507 33.9561 114.375 34.4111 113.465 35.3211C112.578 36.2311 112.135 37.3861 112.135 38.7861C112.135 40.1861 112.578 41.3411 113.465 42.2511ZM139.496 29.5461C141.853 29.5461 143.859 30.4445 145.516 32.2411C147.196 34.0145 148.036 36.1961 148.036 38.7861C148.036 41.3761 147.196 43.5695 145.516 45.3661C143.859 47.1395 141.853 48.0261 139.496 48.0261C137.046 48.0261 135.156 47.1745 133.826 45.4711V47.5361H129.311V23.0361H133.826V32.1011C135.156 30.3978 137.046 29.5461 139.496 29.5461ZM135.191 42.3561C136.101 43.2661 137.256 43.7211 138.656 43.7211C140.056 43.7211 141.211 43.2661 142.121 42.3561C143.054 41.4228 143.521 40.2328 143.521 38.7861C143.521 37.3395 143.054 36.1611 142.121 35.2511C141.211 34.3178 140.056 33.8511 138.656 33.8511C137.256 33.8511 136.101 34.3178 135.191 35.2511C134.281 36.1611 133.826 37.3395 133.826 38.7861C133.826 40.2328 134.281 41.4228 135.191 42.3561ZM162.77 30.0361H167.285V47.5361H162.77V45.5761C161.674 47.2095 159.935 48.0261 157.555 48.0261C155.642 48.0261 154.055 47.3845 152.795 46.1011C151.559 44.8178 150.94 43.0445 150.94 40.7811V30.0361H155.455V40.2211C155.455 41.3878 155.77 42.2861 156.4 42.9161C157.03 43.5228 157.87 43.8261 158.92 43.8261C160.087 43.8261 161.02 43.4645 161.72 42.7411C162.42 42.0178 162.77 40.9328 162.77 39.4861V30.0361ZM175.935 33.0461C176.355 31.9261 177.044 31.0861 178 30.5261C178.98 29.9661 180.065 29.6861 181.255 29.6861V34.7261C179.879 34.5628 178.642 34.8428 177.545 35.5661C176.472 36.2895 175.935 37.4911 175.935 39.1711V47.5361H171.42V30.0361H175.935V33.0461Z" fill="white"/>
</svg>
